<?xml version="1.0" encoding="utf-8"?>
<!DOCTYPE svg PUBLIC "-//W3C//DTD SVG 20010904//EN" "http://www.w3.org/TR/2001/REC-SVG-20010904/DTD/svg10.dtd">
<svg version="1.0" xmlns="http://www.w3.org/2000/svg" width="1277px" height="1276px" viewBox="0 0 1277 1276" preserveAspectRatio="xMidYMid meet">
 <g fill="#ffffff">
  <path d="M462.5 753.7 c-15 -5 -27 -17.9 -30.4 -32.8 -1.3 -5.7 -1.3 -18.2 0 -23.8 2.9 -12.8 11.7 -23.9 23.7 -29.8 7.4 -3.7 7.9 -3.8 18.6 -3.8 9.9 0 11.7 0.3 16.6 2.6 3.1 1.4 7.3 4.1 9.3 5.9 l3.7 3.2 0 -5.6 0 -5.6 10 0 10 0 0 45 0 45 -10 0 -10 0 0 -6.1 0 -6.2 -4.6 4.3 c-6.9 6.4 -12.2 8.3 -23.4 8.7 -6 0.2 -11 -0.2 -13.5 -1z m24.6 -18.2 c6.2 -2.1 10.9 -6.3 14.4 -12.6 2.7 -4.8 3 -6.3 3 -13.9 0 -7.6 -0.3 -9.1 -3 -13.9 -13.6 -24.5 -50.5 -15.1 -50.5 12.9 0 9.2 2.4 15.5 8 21.1 7.4 7.3 18.1 9.8 28.1 6.4z"/>
  <path d="M692.4 753.1 c-31.5 -11.5 -40.5 -54.6 -16.3 -78.1 9 -8.7 19.5 -12.5 32.8 -11.8 9.9 0.6 15.9 2.8 21.9 8.2 2.2 2 4.2 3.6 4.6 3.6 0.3 0 0.6 -2.5 0.6 -5.5 l0 -5.5 10 0 10 0 0 45 0 45 -10 0 -10 0 0 -6.1 0 -6.1 -4.1 3.7 c-7.2 6.4 -13.9 9 -24.9 9.2 -7.2 0.2 -10.7 -0.2 -14.6 -1.6z m29.1 -18.9 c9.2 -4.7 14.9 -14.3 14.9 -25.2 0 -10.8 -5.6 -20.3 -14.9 -25.3 -5.7 -3.1 -18.3 -3.1 -24.1 0 -8.8 4.7 -14.1 12.6 -15.1 22.7 -1.3 13 6.9 25.5 19.7 29.7 4.3 1.4 15.2 0.4 19.5 -1.9z"/>
  <path d="M824.3 753.6 c-5.1 -1.7 -10.1 -4.7 -13.2 -8 -1.4 -1.4 -2.8 -2.6 -3.3 -2.6 -0.4 0 -0.8 2.5 -0.8 5.5 l0 5.5 -10 0 -10 0 0 -56.5 0 -56.5 10 0 10 0 0 17 c0 9.4 0.4 17 0.8 17 0.5 0 1.9 -1.2 3.3 -2.6 1.3 -1.4 5.1 -4 8.4 -5.8 5.7 -2.9 6.6 -3.1 17 -3.1 10.3 0 11.4 0.2 17.7 3.2 16.7 7.9 25.8 22.9 25.8 42.4 0 19.3 -9.2 34.4 -25.8 42.2 -5.9 2.8 -7.9 3.2 -16.2 3.4 -5.9 0.2 -11.1 -0.3 -13.7 -1.1z m17.9 -18.2 c6.2 -2.1 12.1 -7.4 15.2 -13.6 3.6 -7.1 3.7 -18 0.2 -25.4 -7.8 -16.7 -30.4 -20.4 -43.6 -7.2 -5.2 5.2 -7.4 11.1 -7.4 19.8 0.1 8.7 1.8 13.2 7.1 19.1 7.4 8.2 18 10.9 28.5 7.3z"/>
  <path d="M920 753.3 c-6.5 -2.3 -15 -11.2 -18.1 -18.8 -2.3 -5.8 -2.3 -7.1 -2.7 -38.1 l-0.3 -32 9.3 -4.3 c5.1 -2.4 9.9 -4.5 10.6 -4.8 0.9 -0.4 1.2 6.8 1.2 33.8 0 31.3 0.2 34.8 1.9 38.4 3.3 7.2 8.6 10.5 16.7 10.5 4.8 0 10.7 -2 13.8 -4.8 1 -0.9 2.9 -3.9 4.2 -6.7 2.3 -4.9 2.4 -5.7 2.4 -33.5 l0 -28.5 9.5 -4.8 c5.2 -2.6 9.7 -4.7 10 -4.7 0.3 0 0.5 22.3 0.5 49.5 l0 49.5 -10 0 -10 0 0 -5.1 0 -5.1 -4.6 4 c-2.5 2.2 -6.6 4.8 -9.1 5.6 -6 2.1 -19.3 2 -25.3 -0.1z"/>
  <path d="M298 698 l0 -56.1 10.2 0.3 10.2 0.3 15.8 22 c8.7 12.1 16.4 22.6 17.2 23.3 1 1.1 4.4 -2.8 18.9 -22.2 l17.7 -23.6 9.5 0 9.5 0 0 56 0 56 -10 0 -10 0 0 -39 c0 -21.4 -0.3 -39 -0.7 -39 -0.5 0 -8.3 10.2 -17.4 22.6 l-16.7 22.5 -15.2 -20.8 c-8.4 -11.4 -16.2 -21.7 -17.2 -22.8 -1.7 -1.9 -1.8 -0.8 -1.8 37.3 l0 39.2 -10 0 -10 0 0 -56z"/>
  <path d="M560 709 l0 -45 10 0 10 0 0 5.6 0 5.6 4 -3.5 c6.8 -6.2 11.4 -8 21.5 -8.5 7.5 -0.3 10 0 14.9 1.8 10.6 4 18 12.9 20.5 24.8 0.7 3.2 1.1 16.8 1.1 34.7 l0 29.5 -9.9 0 -9.9 0 -0.4 -29.2 c-0.3 -27.3 -0.4 -29.6 -2.4 -33.8 -2.5 -5.4 -5 -7.7 -10.1 -9.6 -8.3 -2.9 -17.8 -0.8 -23.5 5.2 -5.3 5.7 -5.8 9.1 -5.8 39.5 l0 27.9 -10 0 -10 0 0 -45z"/>
  <path d="M856.1 606 c-17.7 -4.7 -22.7 -13.1 -13.4 -22.4 4.1 -4.1 4.5 -4.2 6.3 -2.1 1.1 1.3 0.8 2.1 -1.8 4.8 -6.3 6.5 -3.4 11 9.3 14.3 2.8 0.8 6.3 1.4 7.9 1.4 2.4 0 2.8 0.3 2.2 2.3 -0.3 1.2 -0.6 2.5 -0.6 3 0 1 -1.6 0.8 -9.9 -1.3z"/>
  <path d="M432.5 597.7 c-1.5 -2.1 -1.4 -2.2 2.7 -3 2.4 -0.5 4.7 -1.2 5.1 -1.7 0.9 -0.8 -1.2 -12 -2.2 -12 -1.2 0.1 -22.1 5.9 -23 6.4 -0.5 0.3 -1.1 -0.6 -1.4 -2 -0.2 -1.4 0 -2.7 0.7 -2.9 0.6 -0.2 6 -1.6 11.9 -3.1 10.3 -2.6 10.8 -2.8 10.2 -5.1 -0.3 -1.5 -0.1 -2.3 0.8 -2.3 1.7 0 8.3 -6.8 7.4 -7.6 -0.4 -0.4 -5.7 0.7 -11.9 2.4 -6.2 1.6 -11.6 2.8 -12 2.6 -0.5 -0.3 -0.8 -1.3 -0.8 -2.2 0 -1.4 3.1 -2.5 15.3 -5.5 20.7 -5.2 21.9 -4.5 11.6 6.7 -2.8 3.1 -4.9 5.9 -4.6 6.2 0.3 0.3 5.6 -0.8 11.9 -2.4 11.1 -2.9 12.7 -2.9 12.8 0.3 0 0.6 -5.2 2.3 -11.5 3.9 -8 2.1 -11.5 3.4 -11.5 4.4 0 0.8 0.7 4.1 1.6 7.5 1.9 7.2 1.3 8.1 -6.4 10.2 -5 1.3 -5.3 1.2 -6.7 -0.8z"/>
  <path d="M823.3 599.3 c-3 -0.6 -2.9 -2.5 0.2 -14.8 2 -8.1 12.8 -33.5 14.2 -33.5 0.5 0 4.5 2.1 5.2 2.6 0.2 0.1 -0.6 1.5 -1.7 3.1 -4 5.7 -13.3 27 -13.2 30.1 0.1 0.4 1.4 -0.8 3 -2.7 2.4 -2.9 3.2 -3.2 4.4 -2.2 1.4 1.2 1.1 1.8 -1.8 5.5 -1.8 2.2 -4.3 6 -5.5 8.4 -1.2 2.3 -2.2 4.1 -2.4 4.1 -0.1 -0.1 -1.2 -0.4 -2.4 -0.6z"/>
  <path d="M767.1 584.4 c-0.6 -1.5 -1 -2.8 -0.9 -2.9 0.2 -0.1 3.2 -0.8 6.8 -1.4 3.6 -0.7 8.7 -2.4 11.3 -3.9 5.3 -2.8 13.1 -10.6 12.4 -12.5 -0.2 -0.6 -8.4 -2.9 -18.3 -5.1 -9.8 -2.1 -18.1 -4 -18.3 -4.2 -0.2 -0.2 -0.1 -1.4 0.3 -2.7 l0.6 -2.4 18.7 4.3 c10.4 2.4 20 4.3 21.4 4.4 1.7 0 2.9 0.8 3.6 2.2 0.8 1.9 0.4 3.1 -2.4 6.9 -7.1 9.9 -15.1 15.6 -26 18.4 -7.5 2 -7.8 1.9 -9.2 -1.1z"/>
  <path d="M493 579.7 c-10.7 -5.6 -12.2 -22.3 -3.4 -35.6 1.3 -1.9 2.2 -3.7 2 -3.9 -0.2 -0.2 -2.8 0.4 -5.7 1.2 -7 2.1 -7.9 2 -7.9 -0.8 0 -2.2 0.7 -2.6 7.8 -4.1 4.2 -1 8.4 -2.1 9.3 -2.6 1.1 -0.6 2.3 -0.1 3.8 1.5 l2.1 2.2 -2.6 2.4 c-3.1 3 -8 13.1 -8.9 18.6 -0.9 5.8 0.9 11.7 4.6 14.8 5.4 4.6 14 2.8 17.9 -3.7 3 -4.8 2.7 -17.1 -0.6 -26.2 -1.3 -3.8 -2.7 -7.7 -3 -8.6 -0.3 -1 0.3 -1.9 1.7 -2.5 2 -0.9 2.7 -0.4 6.8 5 2.5 3.3 7.2 7.8 10.3 10 5.2 3.6 5.6 4 4.6 6.2 -0.6 1.3 -1.5 2.4 -2 2.4 -0.5 0 -3.6 -2.5 -6.9 -5.7 -3.2 -3.1 -5.9 -5.2 -5.9 -4.7 0 0.5 0.7 3.1 1.5 5.8 4 13.2 -0.2 24.7 -10.7 29.1 -5.2 2.1 -9.8 1.9 -14.8 -0.8z"/>
  <path d="M715.3 576 c-1.6 -0.6 -2.3 -1.8 -2.3 -3.6 0 -2.3 0.3 -2.5 2.3 -2 6.6 1.9 7.5 1.9 9.1 -0.6 1.8 -2.7 5.6 -17.9 5.6 -22.5 0 -3 -0.2 -3.2 -4.7 -3.8 -2.7 -0.3 -6.2 -0.8 -7.9 -1.1 -2.9 -0.4 -3.2 -0.2 -3.8 2.8 -1.8 9.5 -9.1 19.6 -18.5 25.6 l-5.5 3.5 -1.8 -2.3 c-1 -1.2 -1.8 -2.5 -1.8 -2.9 0 -0.3 1.9 -1.5 4.2 -2.5 8.1 -3.8 17.8 -16.4 17.8 -23.3 0 -2 -0.7 -2.2 -8.6 -2.8 l-8.6 -0.7 0.7 -2.7 c0.4 -1.4 0.7 -2.6 0.8 -2.7 0.1 -0.1 3.9 0.3 8.5 0.9 4.5 0.5 8.5 0.7 8.8 0.4 0.3 -0.2 0.8 -2.9 1.1 -5.9 0.5 -5.4 0.5 -5.4 3.7 -5 l3.2 0.4 -1 5.4 c-0.5 3 -0.7 5.7 -0.3 6 0.3 0.4 4.6 1.1 9.4 1.7 4.8 0.5 9.4 1.5 10.1 2.1 1 1 0.8 3.4 -0.8 12.4 -2.4 13 -5.4 21.8 -8 23.2 -2.3 1.2 -8.7 1.2 -11.7 0z"/>
  <path d="M863 572.6 c-4.7 -1.2 -10.2 -3 -12.2 -3.9 -3.3 -1.4 -3.7 -1.9 -2.9 -3.9 0.4 -1.3 1.1 -2.2 1.5 -2.1 0.4 0.1 3 1.1 6 2.2 2.9 1.1 8.2 2.5 11.7 3.2 7.5 1.5 8.3 2 7.4 4.8 -0.8 2.6 -0.9 2.6 -11.5 -0.3z"/>
  <path d="M410.1 567.7 c-0.6 -2.9 -1.4 -6.2 -1.7 -7.4 -0.5 -1.9 -0.2 -2.3 1.7 -2.3 1.3 -0.1 3.7 -0.6 5.3 -1.3 l2.9 -1.3 -3.3 -2.7 c-3.1 -2.7 -3.2 -2.9 -1.4 -4.2 1.7 -1.2 2.3 -1 5.6 2.2 3.2 3.2 4.1 3.5 7.4 3 2 -0.3 3.9 -0.8 4.1 -1.1 0.3 -0.3 -0.7 -2 -2.2 -4 -2.6 -3.4 -2.6 -3.5 -0.6 -4.5 1.7 -0.9 2.4 -0.5 5.3 2.9 3 3.6 3.7 4 6.6 3.4 2.7 -0.6 3.4 -1.3 4.3 -4.8 0.6 -2.2 1.3 -4.7 1.5 -5.3 0.3 -1.2 5.4 -1.9 5.4 -0.8 0 0.3 -0.7 2.2 -1.5 4.2 -0.8 2 -1.3 3.8 -1.1 4 0.2 0.2 2.6 -0.2 5.3 -1 l5 -1.5 1.6 6.6 c1.7 7.2 1.5 8.2 -1.2 8.2 -1.4 0 -2.2 -1.2 -3 -4.6 -1 -4 -1.5 -4.5 -3.4 -4 -1.2 0.3 -10.4 2.7 -20.5 5.3 l-18.3 4.8 0.7 3.5 c1.1 5.7 1 6.2 -1.2 7 -1.9 0.8 -2.2 0.3 -3.3 -4.3z"/>
  <path d="M567.3 571.5 c-8.9 -3.9 -6.3 -14.3 5.3 -21.1 2.4 -1.4 4.4 -2.9 4.4 -3.3 0 -1.6 -2.6 -3.1 -5.5 -3.1 -3.6 0 -6.3 1.7 -12.7 7.8 -4.6 4.4 -4.8 4.5 -6.7 2.8 -2 -1.8 -1.9 -1.9 2 -6.9 3.6 -4.5 7.9 -11.7 7.9 -13.2 0 -0.3 -2.7 -0.5 -6 -0.5 -5.7 0 -6 -0.1 -6 -2.5 0 -2.4 0.2 -2.5 7.4 -2.5 l7.4 0 0.9 -3.7 c0.8 -3.3 1.3 -3.8 4.1 -4.1 l3.3 -0.3 -1.5 3.5 -1.5 3.6 3.2 0 c1.8 0 6.3 -0.7 10.2 -1.5 3.8 -0.8 7.1 -1.5 7.2 -1.5 0.2 0 0.3 1.1 0.3 2.4 0 3 -0.6 3.2 -12.7 4.7 l-9.9 1.2 -2.7 4.9 c-1.5 2.6 -2.6 4.8 -2.4 4.8 0.1 0 2 -0.9 4.2 -2 2.2 -1.1 4.7 -2 5.7 -2 2.8 0 6.7 2.2 7.3 4.2 0.8 2.3 1.3 2.3 8.1 -0.7 6.9 -3 8.1 -3.1 8.9 -0.4 0.8 2.5 1.6 1.9 -7.3 5.3 l-7.4 2.8 0.4 5.8 c0.3 5.7 0.2 5.9 -2.4 6.3 -2.7 0.3 -2.8 0.2 -2.8 -4.5 0 -2.6 -0.3 -4.8 -0.6 -4.8 -1 0 -6.8 4.2 -8.1 5.8 -0.7 0.9 -1.3 2.9 -1.3 4.4 0 2.2 0.6 3.1 2.8 3.9 3.3 1.3 16.7 0.4 22.2 -1.5 3.8 -1.3 3.9 -1.3 4.5 1.2 0.8 3.2 -0.1 3.8 -9.2 5.1 -9.8 1.5 -17.1 1.3 -21 -0.4z"/>
  <path d="M625.8 569.6 c-1.6 -2.3 -1.6 -2.4 1 -3.5 8 -3.6 13.1 -9.4 14.7 -16.8 l0.7 -3.3 -11.6 0 -11.6 0 0 -2.7 0 -2.8 12 0.4 12 0.3 0 -5.3 0 -5.4 -9 0.3 c-5.5 0.2 -9 0 -9 -0.6 0 -0.6 -0.3 -1.7 -0.6 -2.6 -0.5 -1.4 0.5 -1.6 7.2 -1.6 9 0 18.5 -1.4 25 -3.6 4.3 -1.4 4.7 -1.4 6 0.3 0.7 1 1.4 2.1 1.4 2.5 0 0.9 -9.6 3.8 -12.7 3.8 -2.1 0 -2.3 0.4 -2.3 5.9 l0 5.8 5.3 0.7 c2.8 0.3 7.6 0.6 10.5 0.6 4.9 0 5.2 0.2 5.2 2.5 l0 2.5 -10.9 0 -10.9 0 -0.7 3.3 c-1.8 8.1 -8.4 16.5 -16.2 20.6 -3 1.5 -3.5 1.4 -5.5 -1.3z"/>
  <path d="M787 545.4 c-8 -1.8 -15.6 -3.3 -16.9 -3.3 -2 -0.1 -2.2 -0.4 -1.6 -2.8 0.4 -1.6 0.7 -2.9 0.8 -2.9 0.1 -0.1 7.7 1.5 17 3.5 12.6 2.7 16.7 4 16.7 5.1 -0.1 3.6 -1.4 3.6 -16 0.4z"/>
  <path d="M519.7 532.2 c-4.1 -4.2 -4.3 -4.7 -2.3 -5.5 0.7 -0.3 3 1.1 5 3.2 3 3.1 3.4 4 2.3 4.9 -1 0.9 -2.1 0.3 -5 -2.6z"/>
  <path d="M526.3 527 c-2.4 -2.8 -2.9 -4 -2 -4.9 0.8 -0.8 1.9 -0.3 4.4 2.1 3.5 3.4 4.1 5.3 2 6.1 -0.7 0.3 -2.7 -1.2 -4.4 -3.3z"/>
 </g>
</svg>